<svg xmlns="http://www.w3.org/2000/svg" version="1.1" xlink="http://www.w3.org/1999/xlink" xmlns:svgjs="http://svgjs.com/svgjs" preserveAspectRatio="xMidYMid meet" viewBox="0 0 300 44.36659622192383" overflow="visible"><defs id="SvgjsDefs77243"></defs><g id="SvgjsG77244" opacity="1"><g id="SvgjsG77245" class="text" transform="translate(261.75, 42.6) scale(1)" light-content="false" fill="#454545"><path d="M-258.09 -3.12C-255.61 -0.64 -252.21 0.6 -247.89 0.6C-245.45 0.6 -243.17 0.14 -241.05 -0.78C-238.93 -1.7 -237.14 -3.01 -235.68 -4.71C-234.22 -6.41 -233.27 -8.4 -232.83 -10.68C-232.67 -11.36 -232.59 -12.1 -232.59 -12.9C-232.59 -14.66 -233.05 -16.18 -233.97 -17.46C-234.89 -18.74 -236.01 -19.8 -237.33 -20.64C-238.65 -21.48 -240.39 -22.46 -242.55 -23.58C-244.47 -24.54 -245.99 -25.38 -247.11 -26.1C-248.23 -26.82 -249.17 -27.67 -249.93 -28.65C-250.69 -29.63 -251.07 -30.76 -251.07 -32.04C-251.07 -32.48 -251.01 -32.94 -250.89 -33.42C-250.45 -35.66 -249.27 -37.45 -247.35 -38.79C-245.43 -40.13 -242.87 -40.8 -239.67 -40.8C-237.07 -40.8 -235.01 -40.07 -233.49 -38.61C-231.97 -37.15 -231.21 -35.22 -231.21 -32.82C-231.21 -32.3 -231.23 -31.9 -231.27 -31.62L-230.19 -31.62L-227.97 -42.36L-229.47 -42.36L-230.01 -40.02C-230.13 -39.46 -230.35 -39.18 -230.67 -39.18L-231.09 -39.48C-231.93 -40.28 -233.08 -41 -234.54 -41.64C-236 -42.28 -237.79 -42.6 -239.91 -42.6C-243.55 -42.6 -246.66 -41.79 -249.24 -40.17C-251.82 -38.55 -253.41 -36.22 -254.01 -33.18C-254.13 -32.54 -254.19 -31.92 -254.19 -31.32C-254.19 -29.72 -253.76 -28.33 -252.9 -27.15C-252.04 -25.97 -250.99 -24.96 -249.75 -24.12C-248.51 -23.28 -246.85 -22.32 -244.77 -21.24C-242.77 -20.16 -241.19 -19.24 -240.03 -18.48C-238.87 -17.72 -237.89 -16.8 -237.09 -15.72C-236.29 -14.64 -235.89 -13.38 -235.89 -11.94C-235.89 -11.42 -235.95 -10.88 -236.07 -10.32C-236.63 -7.52 -238.03 -5.29 -240.27 -3.63C-242.51 -1.97 -245.23 -1.14 -248.43 -1.14C-250.23 -1.14 -251.9 -1.54 -253.44 -2.34C-254.98 -3.14 -256.21 -4.22 -257.13 -5.58C-258.05 -6.94 -258.51 -8.44 -258.51 -10.08L-258.45 -10.86L-259.53 -10.86L-261.75 -0.12L-260.25 -0.12L-259.71 -2.76C-259.55 -3.52 -259.31 -3.9 -258.99 -3.9C-258.91 -3.9 -258.76 -3.79 -258.54 -3.57Z M-195.15 -1.08L-196.05 -1.08C-196.81 -1.08 -197.54 -1.28 -198.24 -1.68C-198.94 -2.08 -199.33 -2.56 -199.41 -3.12L-205.47 -42.54L-207.93 -41.28L-229.35 -3.12C-229.67 -2.56 -230.29 -2.08 -231.21 -1.68C-232.13 -1.28 -232.97 -1.08 -233.73 -1.08L-234.63 -1.08L-234.81 0L-223.41 0L-223.29 -1.08L-224.13 -1.08C-224.81 -1.08 -225.47 -1.24 -226.11 -1.56C-226.75 -1.88 -227.07 -2.28 -227.07 -2.76C-227.07 -2.96 -227.01 -3.14 -226.89 -3.3L-221.25 -13.44L-204.33 -13.44L-202.77 -2.76C-202.69 -2.28 -203.08 -1.88 -203.94 -1.56C-204.8 -1.24 -205.63 -1.08 -206.43 -1.08L-207.21 -1.08L-207.39 0L-195.33 0ZM-204.57 -15.24L-220.23 -15.24L-207.81 -37.44Z M-193.35 -1.08L-193.47 0L-181.17 0L-180.99 -1.08L-182.61 -1.08C-183.65 -1.08 -184.42 -1.2 -184.92 -1.44C-185.42 -1.68 -185.67 -2.08 -185.67 -2.64C-185.67 -2.84 -185.65 -3 -185.61 -3.12L-178.11 -39.96L-161.61 0L-159.27 0L-151.41 -38.82C-151.25 -39.54 -150.85 -40.06 -150.21 -40.38C-149.57 -40.7 -148.67 -40.86 -147.51 -40.86L-145.95 -40.86L-145.71 -42L-158.01 -42L-158.25 -40.86L-156.63 -40.86C-155.47 -40.86 -154.63 -40.7 -154.11 -40.38C-153.59 -40.06 -153.41 -39.54 -153.57 -38.82L-160.53 -4.56L-175.71 -42L-184.95 -42L-185.19 -40.86L-183.57 -40.86C-182.41 -40.86 -181.58 -40.7 -181.08 -40.38C-180.58 -40.06 -180.39 -39.54 -180.51 -38.82L-187.77 -3.12C-187.93 -2.4 -188.34 -1.88 -189 -1.56C-189.66 -1.24 -190.57 -1.08 -191.73 -1.08Z M-141.51 -1.08L-141.69 0L-128.43 0L-128.25 -1.08L-129.87 -1.08C-130.91 -1.08 -131.68 -1.2 -132.18 -1.44C-132.68 -1.68 -132.93 -2.08 -132.93 -2.64C-132.93 -2.84 -132.91 -3 -132.87 -3.12L-125.31 -40.2L-117.03 -40.2C-116.03 -40.2 -115.32 -39.77 -114.9 -38.91C-114.48 -38.05 -114.27 -36.96 -114.27 -35.64C-114.27 -34.48 -114.39 -33.26 -114.63 -31.98L-113.61 -31.98L-111.63 -42L-141.45 -42L-143.49 -31.98L-142.47 -31.98C-141.99 -34.06 -141.29 -35.95 -140.37 -37.65C-139.45 -39.35 -138.23 -40.2 -136.71 -40.2L-128.43 -40.2L-135.99 -3.12C-136.15 -2.4 -136.55 -1.88 -137.19 -1.56C-137.83 -1.24 -138.73 -1.08 -139.89 -1.08Z M-67.89 -42L-81.15 -42L-81.33 -40.86L-79.77 -40.86C-78.61 -40.86 -77.77 -40.7 -77.25 -40.38C-76.73 -40.06 -76.55 -39.54 -76.71 -38.82L-79.83 -23.34L-102.99 -23.34L-99.87 -38.82C-99.71 -39.54 -99.31 -40.06 -98.67 -40.38C-98.03 -40.7 -97.13 -40.86 -95.97 -40.86L-94.35 -40.86L-94.17 -42L-107.37 -42L-107.61 -40.86L-105.99 -40.86C-104.83 -40.86 -104 -40.7 -103.5 -40.38C-103 -40.06 -102.81 -39.54 -102.93 -38.82L-110.19 -3.12C-110.35 -2.4 -110.76 -1.88 -111.42 -1.56C-112.08 -1.24 -112.99 -1.08 -114.15 -1.08L-115.77 -1.08L-115.89 0L-102.69 0L-102.51 -1.08L-104.13 -1.08C-106.17 -1.08 -107.19 -1.6 -107.19 -2.64C-107.19 -2.84 -107.17 -3 -107.13 -3.12L-103.41 -21.54L-80.25 -21.54L-83.97 -3.12C-84.13 -2.4 -84.53 -1.88 -85.17 -1.56C-85.81 -1.24 -86.71 -1.08 -87.87 -1.08L-89.49 -1.08L-89.67 0L-76.41 0L-76.23 -1.08L-77.85 -1.08C-78.89 -1.08 -79.66 -1.2 -80.16 -1.44C-80.66 -1.68 -80.91 -2.08 -80.91 -2.64C-80.91 -2.84 -80.89 -3 -80.85 -3.12L-73.59 -38.82C-73.43 -39.54 -73.04 -40.06 -72.42 -40.38C-71.8 -40.7 -70.91 -40.86 -69.75 -40.86L-68.13 -40.86Z M-65.28 -3.21C-62.74 -0.67 -59.07 0.6 -54.27 0.6C-48.39 0.6 -43.45 -1.27 -39.45 -5.01C-35.45 -8.75 -32.75 -14.08 -31.35 -21C-30.83 -23.36 -30.57 -25.62 -30.57 -27.78C-30.57 -32.54 -31.85 -36.2 -34.41 -38.76C-36.97 -41.32 -40.65 -42.6 -45.45 -42.6C-51.33 -42.6 -56.27 -40.72 -60.27 -36.96C-64.27 -33.2 -66.97 -27.88 -68.37 -21C-68.85 -18.8 -69.09 -16.52 -69.09 -14.16C-69.09 -9.4 -67.82 -5.75 -65.28 -3.21ZM-41.25 -6.54C-44.57 -2.98 -48.79 -1.2 -53.91 -1.2C-57.99 -1.2 -61.04 -2.35 -63.06 -4.65C-65.08 -6.95 -66.09 -10.16 -66.09 -14.28C-66.09 -16.44 -65.83 -18.68 -65.31 -21C-64.11 -27.04 -61.84 -31.85 -58.5 -35.43C-55.16 -39.01 -50.95 -40.8 -45.87 -40.8C-41.75 -40.8 -38.68 -39.64 -36.66 -37.32C-34.64 -35 -33.63 -31.78 -33.63 -27.66C-33.63 -25.82 -33.89 -23.6 -34.41 -21C-35.65 -14.92 -37.93 -10.1 -41.25 -6.54Z M-27.45 -3.12C-24.97 -0.64 -21.57 0.6 -17.25 0.6C-14.81 0.6 -12.53 0.14 -10.41 -0.78C-8.29 -1.7 -6.5 -3.01 -5.04 -4.71C-3.58 -6.41 -2.63 -8.4 -2.19 -10.68C-2.03 -11.36 -1.95 -12.1 -1.95 -12.9C-1.95 -14.66 -2.41 -16.18 -3.33 -17.46C-4.25 -18.74 -5.37 -19.8 -6.69 -20.64C-8.01 -21.48 -9.75 -22.46 -11.91 -23.58C-13.83 -24.54 -15.35 -25.38 -16.47 -26.1C-17.59 -26.82 -18.53 -27.67 -19.29 -28.65C-20.05 -29.63 -20.43 -30.76 -20.43 -32.04C-20.43 -32.48 -20.37 -32.94 -20.25 -33.42C-19.81 -35.66 -18.63 -37.45 -16.71 -38.79C-14.79 -40.13 -12.23 -40.8 -9.03 -40.8C-6.43 -40.8 -4.37 -40.07 -2.85 -38.61C-1.33 -37.15 -0.57 -35.22 -0.57 -32.82C-0.57 -32.3 -0.59 -31.9 -0.63 -31.62L0.45 -31.62L2.67 -42.36L1.17 -42.36L0.63 -40.02C0.51 -39.46 0.29 -39.18 -0.03 -39.18L-0.45 -39.48C-1.29 -40.28 -2.44 -41 -3.9 -41.64C-5.36 -42.28 -7.15 -42.6 -9.27 -42.6C-12.91 -42.6 -16.02 -41.79 -18.6 -40.17C-21.18 -38.55 -22.77 -36.22 -23.37 -33.18C-23.49 -32.54 -23.55 -31.92 -23.55 -31.32C-23.55 -29.72 -23.12 -28.33 -22.26 -27.15C-21.4 -25.97 -20.35 -24.96 -19.11 -24.12C-17.87 -23.28 -16.21 -22.32 -14.13 -21.24C-12.13 -20.16 -10.55 -19.24 -9.39 -18.48C-8.23 -17.72 -7.25 -16.8 -6.45 -15.72C-5.65 -14.64 -5.25 -13.38 -5.25 -11.94C-5.25 -11.42 -5.31 -10.88 -5.43 -10.32C-5.99 -7.52 -7.39 -5.29 -9.63 -3.63C-11.87 -1.97 -14.59 -1.14 -17.79 -1.14C-19.59 -1.14 -21.26 -1.54 -22.8 -2.34C-24.34 -3.14 -25.57 -4.22 -26.49 -5.58C-27.41 -6.94 -27.87 -8.44 -27.87 -10.08L-27.81 -10.86L-28.89 -10.86L-31.11 -0.12L-29.61 -0.12L-29.07 -2.76C-28.91 -3.52 -28.67 -3.9 -28.35 -3.9C-28.27 -3.9 -28.12 -3.79 -27.9 -3.57Z M47.55 -42L34.29 -42L34.11 -40.86L35.67 -40.86C36.83 -40.86 37.67 -40.7 38.19 -40.38C38.71 -40.06 38.89 -39.54 38.73 -38.82L35.61 -23.34L12.45 -23.34L15.57 -38.82C15.73 -39.54 16.13 -40.06 16.77 -40.38C17.41 -40.7 18.31 -40.86 19.47 -40.86L21.09 -40.86L21.27 -42L8.07 -42L7.83 -40.86L9.45 -40.86C10.61 -40.86 11.44 -40.7 11.94 -40.38C12.44 -40.06 12.63 -39.54 12.51 -38.82L5.25 -3.12C5.09 -2.4 4.68 -1.88 4.02 -1.56C3.36 -1.24 2.45 -1.08 1.29 -1.08L-0.33 -1.08L-0.45 0L12.75 0L12.93 -1.08L11.31 -1.08C9.27 -1.08 8.25 -1.6 8.25 -2.64C8.25 -2.84 8.27 -3 8.31 -3.12L12.03 -21.54L35.19 -21.54L31.47 -3.12C31.31 -2.4 30.91 -1.88 30.27 -1.56C29.63 -1.24 28.73 -1.08 27.57 -1.08L25.95 -1.08L25.77 0L39.03 0L39.21 -1.08L37.59 -1.08C36.55 -1.08 35.78 -1.2 35.28 -1.44C34.78 -1.68 34.53 -2.08 34.53 -2.64C34.53 -2.84 34.55 -3 34.59 -3.12L41.85 -38.82C42.01 -39.54 42.4 -40.06 43.02 -40.38C43.64 -40.7 44.53 -40.86 45.69 -40.86L47.31 -40.86Z M68.67 -1.08C66.63 -1.08 65.61 -1.6 65.61 -2.64C65.61 -2.84 65.63 -3 65.67 -3.12L72.93 -38.82C73.09 -39.54 73.49 -40.06 74.13 -40.38C74.77 -40.7 75.67 -40.86 76.83 -40.86L78.45 -40.86L78.63 -42L65.43 -42L65.19 -40.86L66.81 -40.86C67.97 -40.86 68.8 -40.7 69.3 -40.38C69.8 -40.06 69.99 -39.54 69.87 -38.82L62.61 -3.12C62.45 -2.4 62.04 -1.88 61.38 -1.56C60.72 -1.24 59.81 -1.08 58.65 -1.08L57.03 -1.08L56.91 0L70.11 0L70.29 -1.08ZM98.55 -42L88.29 -42L88.05 -40.86L88.89 -40.86C90.45 -40.86 91.15 -40.48 90.99 -39.72C90.99 -39.56 90.83 -39.32 90.51 -39L69.87 -23.16L69.33 -20.52L69.33 -20.4L69.39 -20.46L84.87 0L91.53 0L91.71 -1.08L90.03 -1.08C89.15 -1.08 88.48 -1.25 88.02 -1.59C87.56 -1.93 87.09 -2.44 86.61 -3.12L71.91 -22.38L93.63 -39.3C94.23 -39.82 94.8 -40.21 95.34 -40.47C95.88 -40.73 96.55 -40.86 97.35 -40.86L98.31 -40.86Z M103.86 -1.38C105.92 -0.06 108.91 0.6 112.83 0.6C117.39 0.6 121.05 -0.35 123.81 -2.25C126.57 -4.15 128.41 -7.32 129.33 -11.76L134.85 -38.82C135.01 -39.54 135.42 -40.06 136.08 -40.38C136.74 -40.7 137.51 -40.86 138.39 -40.86L139.47 -40.86L139.71 -42L129.09 -42L128.85 -40.86L129.99 -40.86C130.87 -40.86 131.57 -40.69 132.09 -40.35C132.61 -40.01 132.81 -39.5 132.69 -38.82L127.11 -11.46C126.31 -7.62 124.71 -4.94 122.31 -3.42C119.91 -1.9 117.11 -1.14 113.91 -1.14C110.71 -1.14 108.24 -1.66 106.5 -2.7C104.76 -3.74 103.89 -5.6 103.89 -8.28C103.89 -9.08 103.99 -10.14 104.19 -11.46L109.83 -38.82C109.95 -39.54 110.33 -40.06 110.97 -40.38C111.61 -40.7 112.39 -40.86 113.31 -40.86L114.39 -40.86L114.63 -42L103.11 -42L102.87 -40.86L104.01 -40.86C104.89 -40.86 105.6 -40.7 106.14 -40.38C106.68 -40.06 106.87 -39.54 106.71 -38.82L101.19 -11.76C100.91 -10.48 100.77 -9.24 100.77 -8.04C100.77 -4.92 101.8 -2.7 103.86 -1.38Z M134.97 -1.08L134.85 0L147.15 0L147.33 -1.08L145.71 -1.08C144.67 -1.08 143.9 -1.2 143.4 -1.44C142.9 -1.68 142.65 -2.08 142.65 -2.64C142.65 -2.84 142.67 -3 142.71 -3.12L149.91 -38.52L157.65 -4.68L159.51 -4.68L181.17 -38.52L173.97 -3.12C173.81 -2.4 173.41 -1.88 172.77 -1.56C172.13 -1.24 171.21 -1.08 170.01 -1.08L168.45 -1.08L168.27 0L181.47 0L181.65 -1.08L180.09 -1.08C179.05 -1.08 178.28 -1.2 177.78 -1.44C177.28 -1.68 177.03 -2.08 177.03 -2.64C177.03 -2.84 177.05 -3 177.09 -3.12L184.35 -38.82C184.51 -39.54 184.9 -40.06 185.52 -40.38C186.14 -40.7 187.03 -40.86 188.19 -40.86L189.75 -40.86L189.99 -42L180.93 -42L159.69 -8.22L152.19 -42L143.37 -42L143.13 -40.86L144.75 -40.86C145.91 -40.86 146.74 -40.7 147.24 -40.38C147.74 -40.06 147.93 -39.54 147.81 -38.82L140.55 -3.12C140.39 -2.4 139.98 -1.88 139.32 -1.56C138.66 -1.24 137.75 -1.08 136.59 -1.08Z M222.93 -1.08L222.03 -1.08C221.27 -1.08 220.54 -1.28 219.84 -1.68C219.14 -2.08 218.75 -2.56 218.67 -3.12L212.61 -42.54L210.15 -41.28L188.73 -3.12C188.41 -2.56 187.79 -2.08 186.87 -1.68C185.95 -1.28 185.11 -1.08 184.35 -1.08L183.45 -1.08L183.27 0L194.67 0L194.79 -1.08L193.95 -1.08C193.27 -1.08 192.61 -1.24 191.97 -1.56C191.33 -1.88 191.01 -2.28 191.01 -2.76C191.01 -2.96 191.07 -3.14 191.19 -3.3L196.83 -13.44L213.75 -13.44L215.31 -2.76C215.39 -2.28 215 -1.88 214.14 -1.56C213.28 -1.24 212.45 -1.08 211.65 -1.08L210.87 -1.08L210.69 0L222.75 0ZM213.51 -15.24L197.85 -15.24L210.27 -37.44Z M250.11 -18C255.55 -19.28 258.95 -23.22 260.31 -29.82C260.55 -30.94 260.67 -32.22 260.67 -33.66C260.67 -39.22 257.41 -42 250.89 -42L233.13 -42L232.89 -40.86L234.51 -40.86C235.67 -40.86 236.5 -40.7 237 -40.38C237.5 -40.06 237.69 -39.54 237.57 -38.82L230.31 -3.12C230.15 -2.4 229.74 -1.88 229.08 -1.56C228.42 -1.24 227.51 -1.08 226.35 -1.08L224.73 -1.08L224.61 0L237.81 0L237.99 -1.08L236.37 -1.08C234.33 -1.08 233.31 -1.6 233.31 -2.64C233.31 -2.84 233.33 -3 233.37 -3.12L236.31 -17.58L245.97 -17.58C246.65 -17.58 247.15 -17.6 247.47 -17.64C248.15 -16.8 248.59 -15.68 248.79 -14.28C248.99 -12.88 249.13 -11 249.21 -8.64L249.33 -6.24C249.45 -4.4 249.98 -2.9 250.92 -1.74C251.86 -0.58 253.11 0 254.67 0L257.73 0L257.91 -1.08C255.87 -1.08 254.48 -1.91 253.74 -3.57C253 -5.23 252.53 -7.5 252.33 -10.38C252.21 -12.46 252.02 -14.1 251.76 -15.3C251.5 -16.5 250.95 -17.4 250.11 -18ZM253.53 -22.14C251.65 -20.3 249.13 -19.38 245.97 -19.38L236.67 -19.38L240.93 -40.2L250.23 -40.2C255.23 -40.2 257.73 -37.9 257.73 -33.3C257.73 -32.14 257.59 -30.98 257.31 -29.82C256.67 -26.54 255.41 -23.98 253.53 -22.14Z"></path></g><g id="SvgjsG77246" class="text" transform="translate(456.3200000000001, 73.2) scale(1)" light-content="false" fill="#454545"><path d="M-61.68 -4.48L-63.93 -14.22L-65.8 -14.22L-62.36 0L-60.65 0L-57.62 -10.36L-57.39 -11.45L-57.17 -10.36L-54.24 0L-52.53 0L-49.08 -14.22L-50.97 -14.22L-53.17 -4.49L-53.48 -2.58L-53.87 -4.3L-56.61 -14.22L-58.19 -14.22L-61.01 -4.3L-61.41 -2.61Z M-43.2 0.2C-41.43 0.2 -40.1 -0.49 -39.22 -1.85L-40.32 -2.71C-40.65 -2.28 -41.04 -1.93 -41.48 -1.67C-41.93 -1.41 -42.47 -1.28 -43.11 -1.28C-44 -1.28 -44.74 -1.6 -45.33 -2.24C-45.91 -2.88 -46.21 -3.72 -46.24 -4.77L-39.08 -4.77L-39.08 -5.52C-39.08 -7.2 -39.46 -8.5 -40.22 -9.4C-40.99 -10.31 -42.05 -10.76 -43.43 -10.76C-44.27 -10.76 -45.05 -10.53 -45.77 -10.06C-46.49 -9.6 -47.05 -8.95 -47.45 -8.13C-47.85 -7.31 -48.05 -6.37 -48.05 -5.32L-48.05 -4.99C-48.05 -3.41 -47.6 -2.16 -46.7 -1.22C-45.8 -0.28 -44.64 0.2 -43.2 0.2ZM-43.43 -9.28C-42.67 -9.28 -42.07 -9.03 -41.63 -8.52C-41.19 -8.02 -40.94 -7.3 -40.89 -6.39L-40.89 -6.25L-46.18 -6.25C-46.06 -7.21 -45.76 -7.95 -45.26 -8.48C-44.77 -9.01 -44.16 -9.28 -43.43 -9.28Z M-28.05 -5.17L-28.05 -5.32C-28.05 -7.01 -28.41 -8.34 -29.15 -9.31C-29.88 -10.28 -30.89 -10.76 -32.17 -10.76C-33.45 -10.76 -34.46 -10.31 -35.19 -9.4L-35.19 -15L-36.99 -15L-36.99 0L-35.33 0L-35.24 -1.22C-34.51 -0.28 -33.48 0.2 -32.15 0.2C-30.9 0.2 -29.9 -0.29 -29.16 -1.27C-28.42 -2.25 -28.05 -3.55 -28.05 -5.17ZM-29.85 -5.37C-29.85 -4.02 -30.09 -3.01 -30.58 -2.34C-31.06 -1.67 -31.73 -1.34 -32.6 -1.34C-33.77 -1.34 -34.63 -1.89 -35.19 -3L-35.19 -7.57C-34.66 -8.68 -33.81 -9.23 -32.62 -9.23C-31.73 -9.23 -31.04 -8.89 -30.57 -8.22C-30.09 -7.55 -29.85 -6.6 -29.85 -5.37Z M-20.54 0L-16.6 0C-15.33 -0.01 -14.21 -0.29 -13.25 -0.83C-12.29 -1.37 -11.55 -2.15 -11.03 -3.15C-10.51 -4.16 -10.25 -5.34 -10.25 -6.68L-10.25 -7.59C-10.26 -8.9 -10.52 -10.06 -11.04 -11.06C-11.56 -12.07 -12.29 -12.85 -13.24 -13.4C-14.19 -13.95 -15.29 -14.22 -16.52 -14.22L-20.54 -14.22ZM-18.66 -12.68L-16.47 -12.68C-15.08 -12.66 -14.01 -12.21 -13.25 -11.31C-12.49 -10.42 -12.11 -9.16 -12.11 -7.55L-12.11 -6.72C-12.11 -5.06 -12.51 -3.78 -13.32 -2.88C-14.12 -1.98 -15.24 -1.53 -16.69 -1.53L-18.66 -1.53Z M-3.32 0.2C-1.55 0.2 -0.22 -0.49 0.66 -1.85L-0.44 -2.71C-0.77 -2.28 -1.16 -1.93 -1.6 -1.67C-2.04 -1.41 -2.58 -1.28 -3.22 -1.28C-4.12 -1.28 -4.86 -1.6 -5.44 -2.24C-6.03 -2.88 -6.33 -3.72 -6.36 -4.77L0.8 -4.77L0.8 -5.52C0.8 -7.2 0.42 -8.5 -0.34 -9.4C-1.1 -10.31 -2.17 -10.76 -3.54 -10.76C-4.38 -10.76 -5.16 -10.53 -5.88 -10.06C-6.6 -9.6 -7.16 -8.95 -7.56 -8.13C-7.96 -7.31 -8.16 -6.37 -8.16 -5.32L-8.16 -4.99C-8.16 -3.41 -7.71 -2.16 -6.82 -1.22C-5.92 -0.28 -4.75 0.2 -3.32 0.2ZM-3.54 -9.28C-2.79 -9.28 -2.19 -9.03 -1.75 -8.52C-1.31 -8.02 -1.06 -7.3 -1.01 -6.39L-1.01 -6.25L-6.3 -6.25C-6.18 -7.21 -5.88 -7.95 -5.38 -8.48C-4.89 -9.01 -4.27 -9.28 -3.54 -9.28Z M6.25 -2.45L3.56 -10.57L1.72 -10.57L5.55 0L6.92 0L10.71 -10.57L8.87 -10.57Z M16.71 0.2C18.48 0.2 19.81 -0.49 20.69 -1.85L19.59 -2.71C19.26 -2.28 18.87 -1.93 18.43 -1.67C17.99 -1.41 17.44 -1.28 16.81 -1.28C15.91 -1.28 15.17 -1.6 14.58 -2.24C14 -2.88 13.7 -3.72 13.67 -4.77L20.83 -4.77L20.83 -5.52C20.83 -7.2 20.45 -8.5 19.69 -9.4C18.93 -10.31 17.86 -10.76 16.48 -10.76C15.64 -10.76 14.86 -10.53 14.15 -10.06C13.43 -9.6 12.87 -8.95 12.47 -8.13C12.07 -7.31 11.87 -6.37 11.87 -5.32L11.87 -4.99C11.87 -3.41 12.31 -2.16 13.21 -1.22C14.11 -0.28 15.28 0.2 16.71 0.2ZM16.48 -9.28C17.24 -9.28 17.84 -9.03 18.28 -8.52C18.72 -8.02 18.97 -7.3 19.02 -6.39L19.02 -6.25L13.73 -6.25C13.85 -7.21 14.15 -7.95 14.65 -8.48C15.14 -9.01 15.76 -9.28 16.48 -9.28Z M24.88 0L24.88 -15L23.08 -15L23.08 0Z M27.29 -5.38L27.29 -5.25C27.29 -3.61 27.74 -2.29 28.63 -1.3C29.52 -0.3 30.68 0.2 32.11 0.2C33.06 0.2 33.9 -0.03 34.63 -0.49C35.37 -0.94 35.93 -1.58 36.32 -2.4C36.72 -3.21 36.91 -4.14 36.91 -5.17L36.91 -5.29C36.91 -6.95 36.47 -8.27 35.58 -9.27C34.69 -10.26 33.53 -10.76 32.09 -10.76C31.16 -10.76 30.33 -10.54 29.6 -10.09C28.88 -9.64 28.31 -9 27.91 -8.17C27.5 -7.35 27.29 -6.42 27.29 -5.38ZM29.11 -5.17C29.11 -6.49 29.38 -7.5 29.93 -8.21C30.48 -8.92 31.2 -9.28 32.09 -9.28C33 -9.28 33.73 -8.92 34.28 -8.2C34.83 -7.48 35.11 -6.54 35.11 -5.38C35.11 -4.09 34.84 -3.08 34.3 -2.36C33.76 -1.64 33.03 -1.28 32.11 -1.28C31.2 -1.28 30.47 -1.63 29.93 -2.34C29.38 -3.05 29.11 -3.99 29.11 -5.17Z M48.11 -5.17L48.11 -5.33C48.11 -7.04 47.74 -8.37 47 -9.33C46.26 -10.28 45.25 -10.76 43.98 -10.76C42.68 -10.76 41.65 -10.31 40.92 -9.39L40.83 -10.57L39.18 -10.57L39.18 4.06L40.99 4.06L40.99 -1.03C41.72 -0.21 42.73 0.2 44.01 0.2C45.27 0.2 46.27 -0.3 47 -1.28C47.74 -2.26 48.11 -3.56 48.11 -5.17ZM46.3 -5.37C46.3 -4.02 46.04 -3 45.53 -2.31C45.02 -1.62 44.33 -1.28 43.47 -1.28C42.35 -1.28 41.53 -1.76 40.99 -2.72L40.99 -7.77C41.53 -8.74 42.35 -9.23 43.45 -9.23C44.33 -9.23 45.03 -8.88 45.54 -8.19C46.04 -7.5 46.3 -6.56 46.3 -5.37Z M54.79 0.2C56.56 0.2 57.88 -0.49 58.77 -1.85L57.67 -2.71C57.33 -2.28 56.95 -1.93 56.5 -1.67C56.06 -1.41 55.52 -1.28 54.88 -1.28C53.98 -1.28 53.24 -1.6 52.66 -2.24C52.08 -2.88 51.77 -3.72 51.75 -4.77L58.91 -4.77L58.91 -5.52C58.91 -7.2 58.53 -8.5 57.76 -9.4C57 -10.31 55.93 -10.76 54.56 -10.76C53.72 -10.76 52.94 -10.53 52.22 -10.06C51.5 -9.6 50.94 -8.95 50.54 -8.13C50.14 -7.31 49.94 -6.37 49.94 -5.32L49.94 -4.99C49.94 -3.41 50.39 -2.16 51.29 -1.22C52.19 -0.28 53.35 0.2 54.79 0.2ZM54.56 -9.28C55.32 -9.28 55.91 -9.03 56.36 -8.52C56.8 -8.02 57.05 -7.3 57.1 -6.39L57.1 -6.25L51.81 -6.25C51.92 -7.21 52.23 -7.95 52.72 -8.48C53.22 -9.01 53.83 -9.28 54.56 -9.28Z M66.1 -8.95L66.1 -10.62C65.92 -10.72 65.65 -10.76 65.3 -10.76C64.22 -10.76 63.38 -10.29 62.78 -9.35L62.75 -10.57L61 -10.57L61 0L62.8 0L62.8 -7.5C63.23 -8.51 64.03 -9.01 65.21 -9.01C65.53 -9.01 65.83 -8.99 66.1 -8.95Z"></path></g></g></svg>